# xmcd
#
# Track frame offsets: 
#        150
#        5951
#        27396
#        44061
#        54590
#        74658
#        88920
#        105663
#        109602
#        123450
#        139257
#        171887
#        187783
#
# Disc length: 2703 seconds
#
# Revision: 2
# Processed by: cddbd v1.5.2PL0 Copyright (c) Steve Scherf et al.
# Submitted via: ExactAudioCopyFreeDBPlugin 1.0
#
DISCID=c00a8d0d
DTITLE=Alexandru Andrieș - Pe viu
DYEAR=2001
DGENRE=Blues
TTITLE0=Introducere
TTITLE1=Farmece
TTITLE2=Un om fericit
TTITLE3=Cantec de drum bun
TTITLE4=Culori
TTITLE5=Parcul
TTITLE6=Mi-a luat inima
TTITLE7=Fara griji [mic si orchestral]
TTITLE8=Fluture pe perdea
TTITLE9=Mai bine cu coada
TTITLE10=La cinema
TTITLE11=Te port in gand
TTITLE12=E anul nou
EXTD=
EXTT0=
EXTT1=
EXTT2=
EXTT3=
EXTT4=
EXTT5=
EXTT6=
EXTT7=
EXTT8=
EXTT9=
EXTT10=
EXTT11=
EXTT12=
PLAYORDER=
